<svg xmlns="http://www.w3.org/2000/svg" viewBox="0 0 160.92 119.63"><defs><style>.cls-1{fill:#fff;}.cls-2{fill:#c32327;}</style></defs><g id="Layer_2" data-name="Layer 2"><g id="Layer_2-2" data-name="Layer 2"><path class="cls-1" d="M125.16,0V9.6H102.25L92.65,0H59.82A59.8,59.8,0,0,0,11,94.41L6.5,118l24.57-5.75a59.83,59.83,0,0,0,88.56-52.46V41.63l41.29-8.13V0ZM61.46,96.53A38.25,38.25,0,0,1,43,91.82L27.27,95.5l2.91-15.14A38.35,38.35,0,1,1,61.46,96.53Z"/><polygon class="cls-2" points="56.25 37.01 66.67 33.1 63.53 69.7 58.49 69.7 56.25 37.01"/><circle class="cls-2" cx="61.46" cy="79.11" r="4.14"/></g></g></svg>