<svg xmlns="http://www.w3.org/2000/svg" xmlns:xlink="http://www.w3.org/1999/xlink" viewBox="0 0 375.55 293.17"><defs><style>.cls-1,.cls-7,.cls-9{fill:none;}.cls-12,.cls-15,.cls-16,.cls-2{isolation:isolate;}.cls-2{opacity:0.21;}.cls-3{fill:#ffe3b7;}.cls-12,.cls-4{fill:gray;}.cls-5{fill:#4c4c4d;}.cls-6{fill:#181818;stroke:#707071;stroke-width:0.1px;}.cls-7,.cls-9{stroke:#fff3b7;}.cls-8{fill:#fff3b7;}.cls-9{stroke-width:2px;}.cls-10{clip-path:url(#clip-path);}.cls-11{opacity:0.3;}.cls-12{opacity:0.58;}.cls-13{opacity:0.45;}.cls-14{clip-path:url(#clip-path-2);}.cls-15,.cls-16{fill:#292929;}.cls-15{opacity:0.63;}.cls-16{opacity:0.36;}.cls-17{opacity:0.47;}.cls-18{fill:#fff;}</style><clipPath id="clip-path"><rect class="cls-1" x="242.38" y="147.77" width="6" height="31"/></clipPath><clipPath id="clip-path-2"><rect class="cls-1" x="242.38" y="235.69" width="6" height="31"/></clipPath></defs><g id="Layer_2" data-name="Layer 2"><g id="Layer_1-2" data-name="Layer 1"><g id="Background_City_Pen_tool_" data-name="Background City Pen tool "><polygon class="cls-2" points="375.27 206.77 0.27 206.77 0.27 259.67 0.4 293.12 375.27 293.12 375.27 206.77"/><circle id="Ellipse_1" data-name="Ellipse 1" class="cls-3" cx="270.27" cy="91.77" r="77"/><g id="Group_19" data-name="Group 19"><polygon class="cls-4" points="375.16 61.49 371.74 61.49 371.74 89.51 367.4 89.51 367.4 36.69 346.5 36.69 346.5 78.17 335.27 78.17 335.27 115.98 331.49 115.98 331.49 86.06 322.48 86.06 322.48 114.86 320.26 114.86 320.26 76.83 310.81 76.83 310.81 97.97 291.01 97.97 291.01 74.06 288.46 74.06 288.46 66.94 283.67 66.94 280.45 62.49 268.33 62.49 265.99 66.94 261.99 66.94 261.99 92.41 246.42 92.41 246.42 41.47 223.18 48.92 223.18 114.87 213.95 114.87 213.95 82.62 208.72 82.62 208.72 50.9 205.92 50.9 204.72 49.7 198.16 49.7 198.16 45.81 188.48 45.81 188.48 82.62 184.81 82.62 184.81 63.83 165.02 63.83 165.02 93.51 158.46 93.51 158.46 103.3 146.56 103.3 146.56 84.4 145.11 84.4 145.11 77.95 141.89 77.95 141.89 84.95 140.44 84.95 132.54 78.5 132.54 103.86 130.76 103.86 130.76 114.09 124.13 120.36 124.13 36.55 109.27 36.55 109.27 91.05 73.34 91.05 73.34 114.17 65.91 114.17 65.91 79.48 44.44 79.48 44.44 98.48 34.12 98.48 34.12 57.19 12.23 75.77 12.23 93.93 0.27 93.93 0.27 206.91 375.44 206.91 375.16 61.49"/><polygon class="cls-5" points="375.21 86.92 373.11 86.92 373.11 83.2 363.61 83.2 363.61 86.92 359.07 83.2 354.11 83.2 348.33 86.92 348.33 109.63 335.12 109.63 335.12 123.66 312 123.66 312 65.45 306.21 65.45 306.21 60.91 293.41 65.45 293.41 90.22 279.38 90.22 279.38 136.46 274.01 136.46 274.01 112.94 268.23 112.94 268.23 83.21 239.74 90.23 239.74 148.03 228.59 142.66 228.59 121.19 211.66 121.19 211.66 115.82 200.1 115.82 200.1 97.24 188.13 93.11 182.34 93.11 173.67 97.24 173.67 142.66 163.76 142.66 163.76 121.19 145.19 109.63 127.84 117.88 127.84 90.22 109.68 90.22 109.68 68.34 105.96 68.34 105.96 65.45 101.83 65.45 101.83 68.34 89.03 68.34 89.03 74.53 84.9 74.53 84.9 112.93 74.58 112.93 74.58 142.66 48.98 127.79 48.98 117.88 44.02 117.88 41.13 115.82 32.88 115.82 32.88 93.11 28.34 93.11 28.34 90.22 15.95 90.22 15.95 93.11 11.82 93.11 11.82 107.97 0.27 107.97 0.27 201.29 375.43 201.29 375.21 86.92"/><polygon class="cls-6" points="375.38 177.03 363.67 177.03 363.67 136.77 358.59 136.77 352.55 123.89 343.34 123.89 343.34 165.69 337.27 165.69 337.27 123.43 335.15 123.43 335.15 115.98 324.37 119.32 324.37 123.43 322.8 123.43 322.8 172.25 315.9 172.25 315.9 132.88 313.9 132.88 313.9 122.87 306.79 122.87 306.79 114.2 305.67 114.2 305.67 127.1 298 127.1 298 132.88 295.78 132.88 295.78 177.03 288.99 177.03 288.99 136.78 286.21 136.78 284.21 129.34 284.21 120.32 282.88 120.32 282.88 129.34 281.66 129.34 281.66 122.1 280.77 122.1 280.77 129.34 273.88 129.34 271.65 136.78 269.43 136.78 269.43 183.81 262.64 183.81 262.64 158.09 257.08 158.09 257.08 162.91 252.08 162.91 252.08 144.12 241.85 144.12 241.85 190.38 236.74 190.38 236.74 165.69 217.65 158.09 217.65 169.93 212.77 169.93 212.77 145.5 210.12 145.5 210.12 142.49 206.37 142.49 206.37 145.5 202.23 145.5 202.23 129.34 198.09 129.34 198.09 117.69 196.59 117.69 196.59 129.34 193.21 129.34 193.21 182.71 189.64 182.71 189.64 135.54 184.57 135.54 184.57 131.97 177.8 131.97 177.8 135.54 168.97 135.54 163.71 125.96 155.81 125.96 155.81 186.09 151.11 186.09 151.11 138.17 149.8 138.17 149.8 131.22 140.03 133.66 140.03 138.17 137.58 138.17 135.14 131.22 126.49 131.22 122.36 138.17 122.36 181.02 116.91 181.02 116.91 138.17 114.84 138.17 114.84 134.79 112.78 134.79 111.83 123.89 110.71 134.79 107.51 134.79 107.51 138.92 106.01 138.92 106.01 142.5 98.12 142.5 98.12 138.17 87.97 138.17 87.97 184.03 82.14 184.03 82.14 138.93 71.62 131.22 61.28 137.42 61.28 170.87 55.46 170.87 55.46 120.51 53.58 120.51 53.58 134.79 50.38 134.79 50.38 129.34 42.12 129.34 42.12 134.79 37.61 134.79 37.61 177.82 33.47 177.82 33.47 138.92 23.32 132.91 21.82 120.51 20.13 132.91 9.8 138.92 9.8 186.09 5.66 186.09 5.66 181.02 2.47 181.02 2.47 170.87 3.97 170.87 3.97 169.08 0.27 169.08 0.27 207.23 375.44 207.23 375.38 177.03"/></g><g id="Group_18" data-name="Group 18"><g id="Group_20" data-name="Group 20"><line id="Line_1" data-name="Line 1" class="cls-7" x1="14.14" y1="143.43" x2="29.63" y2="143.43"/><line id="Line_2" data-name="Line 2" class="cls-7" x1="14.14" y1="148.2" x2="29.63" y2="148.2"/><line id="Line_3" data-name="Line 3" class="cls-7" x1="14.14" y1="152.96" x2="29.63" y2="152.96"/><line id="Line_4" data-name="Line 4" class="cls-7" x1="14.14" y1="157.73" x2="29.63" y2="157.73"/></g><g id="Group_21" data-name="Group 21"><rect id="Rectangle_4" data-name="Rectangle 4" class="cls-8" x="63.58" y="140.46" width="3.57" height="3.57"/><rect id="Rectangle_4-2" data-name="Rectangle 4-2" class="cls-8" x="69.53" y="140.46" width="3.57" height="3.57"/><rect id="Rectangle_4-3" data-name="Rectangle 4-3" class="cls-8" x="75.49" y="140.46" width="3.57" height="3.57"/><rect id="Rectangle_4-4" data-name="Rectangle 4-4" class="cls-8" x="69.53" y="146.41" width="3.57" height="3.57"/><rect id="Rectangle_4-5" data-name="Rectangle 4-5" class="cls-8" x="75.49" y="146.41" width="3.57" height="3.57"/><rect id="Rectangle_4-6" data-name="Rectangle 4-6" class="cls-8" x="63.58" y="152.37" width="3.57" height="3.57"/><rect id="Rectangle_4-7" data-name="Rectangle 4-7" class="cls-8" x="69.53" y="152.37" width="3.57" height="3.57"/><rect id="Rectangle_4-8" data-name="Rectangle 4-8" class="cls-8" x="75.49" y="152.37" width="3.57" height="3.57"/><rect id="Rectangle_4-9" data-name="Rectangle 4-9" class="cls-8" x="69.53" y="158.32" width="3.57" height="3.57"/></g><g id="Group_22" data-name="Group 22"><rect id="Rectangle_5" data-name="Rectangle 5" class="cls-8" x="96.93" y="146.41" width="4.76" height="4.76"/><rect id="Rectangle_5-2" data-name="Rectangle 5-2" class="cls-8" x="104.08" y="146.41" width="4.76" height="4.76"/><rect id="Rectangle_5-3" data-name="Rectangle 5-3" class="cls-8" x="96.93" y="153.56" width="4.76" height="4.76"/><rect id="Rectangle_5-4" data-name="Rectangle 5-4" class="cls-8" x="104.08" y="153.56" width="4.76" height="4.76"/><rect id="Rectangle_5-5" data-name="Rectangle 5-5" class="cls-8" x="96.93" y="160.71" width="4.76" height="4.76"/><rect id="Rectangle_5-6" data-name="Rectangle 5-6" class="cls-8" x="104.08" y="160.71" width="4.76" height="4.76"/><rect id="Rectangle_5-7" data-name="Rectangle 5-7" class="cls-8" x="111.23" y="160.71" width="4.76" height="4.76"/><rect id="Rectangle_5-8" data-name="Rectangle 5-8" class="cls-8" x="89.79" y="167.85" width="4.76" height="4.76"/><rect id="Rectangle_5-9" data-name="Rectangle 5-9" class="cls-8" x="96.93" y="167.85" width="4.76" height="4.76"/><rect id="Rectangle_5-10" data-name="Rectangle 5-10" class="cls-8" x="104.08" y="167.85" width="4.76" height="4.76"/><rect id="Rectangle_5-11" data-name="Rectangle 5-11" class="cls-8" x="111.23" y="167.85" width="4.76" height="4.76"/><rect id="Rectangle_5-12" data-name="Rectangle 5-12" class="cls-8" x="89.79" y="175" width="4.76" height="4.76"/><rect id="Rectangle_5-13" data-name="Rectangle 5-13" class="cls-8" x="96.93" y="175" width="4.76" height="4.76"/><rect id="Rectangle_5-14" data-name="Rectangle 5-14" class="cls-8" x="104.08" y="175" width="4.76" height="4.76"/></g><line id="Line_5" data-name="Line 5" class="cls-7" x1="126.12" y1="145.82" x2="133.27" y2="145.82"/><line id="Line_6" data-name="Line 6" class="cls-7" x1="126.12" y1="148.2" x2="133.27" y2="148.2"/><line id="Line_7" data-name="Line 7" class="cls-7" x1="135.39" y1="145.82" x2="136.38" y2="145.82"/><line id="Line_8" data-name="Line 8" class="cls-7" x1="135.39" y1="148.2" x2="136.38" y2="148.2"/><line id="Line_9" data-name="Line 9" class="cls-7" x1="126.38" y1="153.77" x2="133.38" y2="153.77"/><line id="Line_10" data-name="Line 10" class="cls-7" x1="126.38" y1="155.77" x2="133.38" y2="155.77"/><line id="Line_11" data-name="Line 11" class="cls-7" x1="135.38" y1="153.77" x2="136.38" y2="153.77"/><line id="Line_12" data-name="Line 12" class="cls-7" x1="135.38" y1="155.77" x2="136.38" y2="155.77"/><line id="Line_13" data-name="Line 13" class="cls-7" x1="126.38" y1="161.77" x2="133.38" y2="161.77"/><line id="Line_14" data-name="Line 14" class="cls-7" x1="126.38" y1="163.77" x2="133.38" y2="163.77"/><line id="Line_15" data-name="Line 15" class="cls-7" x1="135.38" y1="161.77" x2="136.38" y2="161.77"/><line id="Line_16" data-name="Line 16" class="cls-7" x1="135.38" y1="163.77" x2="136.38" y2="163.77"/><g id="Group_23" data-name="Group 23"><g id="Group_6" data-name="Group 6"><rect id="Rectangle_6" data-name="Rectangle 6" class="cls-8" x="158.88" y="141.65" width="2.38" height="2.38"/><rect id="Rectangle_6-2" data-name="Rectangle 6-2" class="cls-8" x="162.45" y="141.65" width="2.38" height="2.38"/><rect id="Rectangle_6-3" data-name="Rectangle 6-3" class="cls-8" x="158.88" y="145.22" width="2.38" height="2.38"/><rect id="Rectangle_6-4" data-name="Rectangle 6-4" class="cls-8" x="162.45" y="145.22" width="2.38" height="2.38"/></g><g id="Group_7" data-name="Group 7"><rect id="Rectangle_6-5" data-name="Rectangle 6-5" class="cls-8" x="169.6" y="141.65" width="2.38" height="2.38"/><rect id="Rectangle_6-6" data-name="Rectangle 6-6" class="cls-8" x="173.17" y="141.65" width="2.38" height="2.38"/><rect id="Rectangle_6-7" data-name="Rectangle 6-7" class="cls-8" x="169.6" y="145.22" width="2.38" height="2.38"/><rect id="Rectangle_6-8" data-name="Rectangle 6-8" class="cls-8" x="173.17" y="145.22" width="2.38" height="2.38"/></g><g id="Group_8" data-name="Group 8"><rect id="Rectangle_6-9" data-name="Rectangle 6-9" class="cls-8" x="180.32" y="141.65" width="2.38" height="2.38"/><rect id="Rectangle_6-10" data-name="Rectangle 6-10" class="cls-8" x="183.89" y="141.65" width="2.38" height="2.38"/><rect id="Rectangle_6-11" data-name="Rectangle 6-11" class="cls-8" x="180.32" y="145.22" width="2.38" height="2.38"/><rect id="Rectangle_6-12" data-name="Rectangle 6-12" class="cls-8" x="183.89" y="145.22" width="2.38" height="2.38"/></g><g id="Group_9" data-name="Group 9"><rect id="Rectangle_6-13" data-name="Rectangle 6-13" class="cls-8" x="158.88" y="149.99" width="2.38" height="2.38"/><rect id="Rectangle_6-14" data-name="Rectangle 6-14" class="cls-8" x="162.45" y="149.99" width="2.38" height="2.38"/><rect id="Rectangle_6-15" data-name="Rectangle 6-15" class="cls-8" x="158.88" y="153.56" width="2.38" height="2.38"/><rect id="Rectangle_6-16" data-name="Rectangle 6-16" class="cls-8" x="162.45" y="153.56" width="2.38" height="2.38"/></g><g id="Group_10" data-name="Group 10"><rect id="Rectangle_6-17" data-name="Rectangle 6-17" class="cls-8" x="169.6" y="149.99" width="2.38" height="2.38"/><rect id="Rectangle_6-18" data-name="Rectangle 6-18" class="cls-8" x="173.17" y="149.99" width="2.38" height="2.38"/><rect id="Rectangle_6-19" data-name="Rectangle 6-19" class="cls-8" x="169.6" y="153.56" width="2.38" height="2.38"/><rect id="Rectangle_6-20" data-name="Rectangle 6-20" class="cls-8" x="173.17" y="153.56" width="2.38" height="2.38"/></g><g id="Group_11" data-name="Group 11"><rect id="Rectangle_6-21" data-name="Rectangle 6-21" class="cls-8" x="180.32" y="149.99" width="2.38" height="2.38"/><rect id="Rectangle_6-22" data-name="Rectangle 6-22" class="cls-8" x="183.89" y="149.99" width="2.38" height="2.38"/><rect id="Rectangle_6-23" data-name="Rectangle 6-23" class="cls-8" x="180.32" y="153.56" width="2.38" height="2.38"/><rect id="Rectangle_6-24" data-name="Rectangle 6-24" class="cls-8" x="183.89" y="153.56" width="2.38" height="2.38"/></g><g id="Group_12" data-name="Group 12"><rect id="Rectangle_6-25" data-name="Rectangle 6-25" class="cls-8" x="158.88" y="158.32" width="2.38" height="2.38"/><rect id="Rectangle_6-26" data-name="Rectangle 6-26" class="cls-8" x="162.45" y="158.32" width="2.38" height="2.38"/><rect id="Rectangle_6-27" data-name="Rectangle 6-27" class="cls-8" x="158.88" y="161.9" width="2.38" height="2.38"/><rect id="Rectangle_6-28" data-name="Rectangle 6-28" class="cls-8" x="162.45" y="161.9" width="2.38" height="2.38"/></g><g id="Group_13" data-name="Group 13"><rect id="Rectangle_6-29" data-name="Rectangle 6-29" class="cls-8" x="169.6" y="158.32" width="2.38" height="2.38"/><rect id="Rectangle_6-30" data-name="Rectangle 6-30" class="cls-8" x="173.17" y="158.32" width="2.38" height="2.38"/><rect id="Rectangle_6-31" data-name="Rectangle 6-31" class="cls-8" x="169.6" y="161.9" width="2.38" height="2.38"/><rect id="Rectangle_6-32" data-name="Rectangle 6-32" class="cls-8" x="173.17" y="161.9" width="2.38" height="2.38"/></g><g id="Group_14" data-name="Group 14"><rect id="Rectangle_6-33" data-name="Rectangle 6-33" class="cls-8" x="180.32" y="158.32" width="2.38" height="2.38"/><rect id="Rectangle_6-34" data-name="Rectangle 6-34" class="cls-8" x="183.89" y="158.32" width="2.38" height="2.38"/><rect id="Rectangle_6-35" data-name="Rectangle 6-35" class="cls-8" x="180.32" y="161.9" width="2.38" height="2.38"/><rect id="Rectangle_6-36" data-name="Rectangle 6-36" class="cls-8" x="183.89" y="161.9" width="2.38" height="2.38"/></g><g id="Group_15" data-name="Group 15"><rect id="Rectangle_6-37" data-name="Rectangle 6-37" class="cls-8" x="158.88" y="166.66" width="2.38" height="2.38"/><rect id="Rectangle_6-38" data-name="Rectangle 6-38" class="cls-8" x="162.45" y="166.66" width="2.38" height="2.38"/><rect id="Rectangle_6-39" data-name="Rectangle 6-39" class="cls-8" x="158.88" y="170.24" width="2.38" height="2.38"/><rect id="Rectangle_6-40" data-name="Rectangle 6-40" class="cls-8" x="162.45" y="170.24" width="2.38" height="2.38"/></g><g id="Group_16" data-name="Group 16"><rect id="Rectangle_6-41" data-name="Rectangle 6-41" class="cls-8" x="169.6" y="166.66" width="2.38" height="2.38"/><rect id="Rectangle_6-42" data-name="Rectangle 6-42" class="cls-8" x="173.17" y="166.66" width="2.38" height="2.38"/><rect id="Rectangle_6-43" data-name="Rectangle 6-43" class="cls-8" x="169.6" y="170.24" width="2.38" height="2.38"/><rect id="Rectangle_6-44" data-name="Rectangle 6-44" class="cls-8" x="173.17" y="170.24" width="2.38" height="2.38"/></g><g id="Group_17" data-name="Group 17"><rect id="Rectangle_6-45" data-name="Rectangle 6-45" class="cls-8" x="180.32" y="166.66" width="2.38" height="2.38"/><rect id="Rectangle_6-46" data-name="Rectangle 6-46" class="cls-8" x="183.89" y="166.66" width="2.38" height="2.38"/><rect id="Rectangle_6-47" data-name="Rectangle 6-47" class="cls-8" x="180.32" y="170.24" width="2.38" height="2.38"/><rect id="Rectangle_6-48" data-name="Rectangle 6-48" class="cls-8" x="183.89" y="170.24" width="2.38" height="2.38"/></g></g><line id="Line_17" data-name="Line 17" class="cls-9" x1="195.21" y1="135.1" x2="199.98" y2="135.1"/><line id="Line_18" data-name="Line 18" class="cls-9" x1="195.21" y1="139.86" x2="199.98" y2="139.86"/><line id="Line_19" data-name="Line 19" class="cls-9" x1="195.21" y1="144.63" x2="199.98" y2="144.63"/><g class="cls-10"><g id="Repeat_Grid_1" data-name="Repeat Grid 1"><line id="Line_21" data-name="Line 21" class="cls-7" x1="242.38" y1="148.27" x2="247.38" y2="148.27"/><line id="Line_21-2" data-name="Line 21-2" class="cls-7" x1="242.38" y1="151.27" x2="247.38" y2="151.27"/><line id="Line_21-3" data-name="Line 21-3" class="cls-7" x1="242.38" y1="154.27" x2="247.38" y2="154.27"/><line id="Line_21-4" data-name="Line 21-4" class="cls-7" x1="242.38" y1="157.27" x2="247.38" y2="157.27"/><line id="Line_21-5" data-name="Line 21-5" class="cls-7" x1="242.38" y1="160.27" x2="247.38" y2="160.27"/><line id="Line_21-6" data-name="Line 21-6" class="cls-7" x1="242.38" y1="163.27" x2="247.38" y2="163.27"/><line id="Line_21-7" data-name="Line 21-7" class="cls-7" x1="242.38" y1="166.27" x2="247.38" y2="166.27"/><line id="Line_21-8" data-name="Line 21-8" class="cls-7" x1="242.38" y1="169.27" x2="247.38" y2="169.27"/><line id="Line_21-9" data-name="Line 21-9" class="cls-7" x1="242.38" y1="172.27" x2="247.38" y2="172.27"/><line id="Line_21-10" data-name="Line 21-10" class="cls-7" x1="242.38" y1="175.27" x2="247.38" y2="175.27"/><line id="Line_21-11" data-name="Line 21-11" class="cls-7" x1="242.38" y1="178.27" x2="247.38" y2="178.27"/></g></g><g id="Group_24" data-name="Group 24"><rect id="Rectangle_7" data-name="Rectangle 7" class="cls-8" x="270.85" y="139.26" width="1.19" height="1.19"/><rect id="Rectangle_7-2" data-name="Rectangle 7-2" class="cls-8" x="273.24" y="139.26" width="1.19" height="1.19"/><rect id="Rectangle_7-3" data-name="Rectangle 7-3" class="cls-8" x="270.85" y="141.65" width="1.19" height="1.19"/><rect id="Rectangle_7-4" data-name="Rectangle 7-4" class="cls-8" x="273.24" y="141.65" width="1.19" height="1.19"/><rect id="Rectangle_8" data-name="Rectangle 8" class="cls-8" x="276.81" y="145.22" width="1.19" height="1.19"/><rect id="Rectangle_9" data-name="Rectangle 9" class="cls-8" x="279.19" y="145.22" width="1.19" height="1.19"/><rect id="Rectangle_10" data-name="Rectangle 10" class="cls-8" x="276.81" y="147.6" width="1.19" height="1.19"/><rect id="Rectangle_11" data-name="Rectangle 11" class="cls-8" x="279.19" y="147.6" width="1.19" height="1.19"/><rect id="Rectangle_12" data-name="Rectangle 12" class="cls-8" x="282.77" y="151.18" width="1.19" height="1.19"/><rect id="Rectangle_13" data-name="Rectangle 13" class="cls-8" x="285.15" y="151.18" width="1.19" height="1.19"/><rect id="Rectangle_14" data-name="Rectangle 14" class="cls-8" x="282.77" y="153.56" width="1.19" height="1.19"/><rect id="Rectangle_15" data-name="Rectangle 15" class="cls-8" x="285.15" y="153.56" width="1.19" height="1.19"/></g><rect id="Rectangle_16" data-name="Rectangle 16" class="cls-8" x="303.02" y="135.69" width="2.38" height="4.76"/><rect id="Rectangle_16-2" data-name="Rectangle 16-2" class="cls-8" x="310.17" y="135.69" width="2.38" height="4.76"/><rect id="Rectangle_16-3" data-name="Rectangle 16-3" class="cls-8" x="299.44" y="141.65" width="2.38" height="4.76"/><rect id="Rectangle_16-4" data-name="Rectangle 16-4" class="cls-8" x="303.02" y="141.65" width="2.38" height="4.76"/><rect id="Rectangle_16-5" data-name="Rectangle 16-5" class="cls-8" x="310.17" y="141.65" width="2.38" height="4.76"/><rect id="Rectangle_16-6" data-name="Rectangle 16-6" class="cls-8" x="303.02" y="147.6" width="2.38" height="4.76"/><rect id="Rectangle_16-7" data-name="Rectangle 16-7" class="cls-8" x="306.59" y="147.6" width="2.38" height="4.76"/><rect id="Rectangle_16-8" data-name="Rectangle 16-8" class="cls-8" x="310.17" y="147.6" width="2.38" height="4.76"/><rect id="Rectangle_16-9" data-name="Rectangle 16-9" class="cls-8" x="299.44" y="153.56" width="2.38" height="4.76"/><rect id="Rectangle_16-10" data-name="Rectangle 16-10" class="cls-8" x="303.02" y="153.56" width="2.38" height="4.76"/><rect id="Rectangle_16-11" data-name="Rectangle 16-11" class="cls-8" x="306.59" y="153.56" width="2.38" height="4.76"/><rect id="Rectangle_16-12" data-name="Rectangle 16-12" class="cls-8" x="310.17" y="153.56" width="2.38" height="4.76"/><rect id="Rectangle_16-13" data-name="Rectangle 16-13" class="cls-8" x="299.44" y="159.52" width="2.38" height="4.76"/><rect id="Rectangle_16-14" data-name="Rectangle 16-14" class="cls-8" x="303.02" y="159.52" width="2.38" height="4.76"/><rect id="Rectangle_16-15" data-name="Rectangle 16-15" class="cls-8" x="306.59" y="159.52" width="2.38" height="4.76"/><line id="Line_22" data-name="Line 22" class="cls-7" x1="334.59" y1="126.76" x2="334.59" y2="144.63"/><line id="Line_23" data-name="Line 23" class="cls-7" x1="332.2" y1="126.76" x2="332.2" y2="144.63"/><line id="Line_24" data-name="Line 24" class="cls-7" x1="327.44" y1="126.76" x2="327.44" y2="144.63"/><line id="Line_25" data-name="Line 25" class="cls-7" x1="325.06" y1="126.76" x2="325.06" y2="144.63"/><line id="Line_26" data-name="Line 26" class="cls-7" x1="345.31" y1="127.95" x2="351.26" y2="127.95"/><line id="Line_27" data-name="Line 27" class="cls-7" x1="345.38" y1="131.04" x2="353.38" y2="131.04"/><line id="Line_28" data-name="Line 28" class="cls-7" x1="345.31" y1="133.9" x2="354.84" y2="133.9"/><line id="Line_29" data-name="Line 29" class="cls-7" x1="345.38" y1="136.77" x2="357.38" y2="136.77"/><rect id="Rectangle_17" data-name="Rectangle 17" class="cls-8" x="351.86" y="140.46" width="3.57" height="3.57"/><rect id="Rectangle_18" data-name="Rectangle 18" class="cls-8" x="357.82" y="140.46" width="3.57" height="3.57"/></g><g id="Group_25" data-name="Group 25" class="cls-11"><polygon class="cls-12" points="375.46 207.55 375.44 207.55 375.45 212.94 375.46 207.55"/><polygon class="cls-12" points="375.45 212.94 375.44 207.55 0.05 207.55 0.4 293.12 375.29 293.12 375.45 212.94"/><polygon class="cls-5" points="375.45 213.17 0.07 213.17 0.4 293.12 43.96 293.12 43.96 286.66 69.56 271.8 69.56 293.12 158.75 293.12 158.75 271.8 168.66 271.8 168.66 293.12 223.57 293.12 223.57 271.8 234.72 266.43 234.72 293.12 268.99 293.12 268.99 277.99 274.36 277.99 274.36 293.12 306.98 293.12 306.98 290.79 330.1 290.79 330.1 293.12 375.29 293.12 375.45 213.17"/><polygon class="cls-6" points="330.13 291.03 332.25 291.03 332.25 248.77 338.32 248.77 338.32 290.57 347.54 290.57 353.57 277.68 358.65 277.68 358.65 237.43 375.4 237.43 375.45 212.95 375.44 207.23 0.05 207.23 0.16 233.43 0.64 233.43 0.64 228.36 4.77 228.36 4.77 275.53 15.11 281.54 16.69 293.12 16.9 293.12 18.3 281.54 28.45 275.53 28.45 236.63 32.59 236.63 32.59 279.67 37.1 279.67 37.1 285.12 45.37 285.12 45.37 279.67 48.56 279.67 48.56 293.12 50.44 293.12 50.44 243.58 56.27 243.58 56.27 277.04 66.6 283.24 77.13 275.53 77.13 230.43 82.95 230.43 82.95 276.28 93.1 276.28 93.1 271.96 101 271.96 101 275.53 102.5 275.53 102.5 279.66 105.69 279.66 106.82 290.56 107.76 279.66 109.83 279.66 109.83 276.28 111.89 276.28 111.89 233.43 117.34 233.43 117.34 276.28 121.48 283.24 130.12 283.24 132.57 276.28 135.01 276.28 135.01 280.79 144.78 283.24 144.78 276.28 146.1 276.28 146.1 228.36 150.8 228.36 150.8 288.5 158.69 288.5 163.95 278.91 172.78 278.91 172.78 282.49 179.55 282.49 179.55 278.91 184.63 278.91 184.63 231.74 188.2 231.74 188.2 285.12 191.58 285.12 191.58 293.12 193.08 293.12 193.08 285.12 197.21 285.12 197.21 268.95 201.35 268.95 201.35 271.96 205.11 271.96 205.11 268.95 207.75 268.95 207.75 244.52 212.63 244.52 212.63 256.36 231.72 248.76 231.72 224.08 236.83 224.08 236.83 270.34 247.06 270.34 247.06 251.55 252.06 251.55 252.06 256.36 257.63 256.36 257.63 230.64 264.41 230.64 264.41 277.68 266.63 277.68 268.86 285.12 275.75 285.12 275.75 292.36 276.64 292.36 276.64 285.12 277.86 285.12 277.86 293.12 279.19 293.12 279.19 285.12 281.19 277.68 283.97 277.68 283.97 237.43 290.76 237.43 290.76 281.57 292.98 281.57 292.98 287.36 300.65 287.36 300.65 293.12 301.77 293.12 301.77 291.58 308.88 291.58 308.88 281.57 310.88 281.57 310.88 242.21 317.78 242.21 317.78 291.03 319.35 291.03 319.35 293.12 330.13 293.12 330.13 291.03"/><polygon class="cls-6" points="375.45 212.95 375.4 237.43 375.5 237.43 375.45 212.95"/><polygon class="cls-6" points="375.44 207.23 375.45 212.95 375.47 207.23 375.44 207.23"/></g><g id="Group_26" data-name="Group 26" class="cls-13"><g id="Group_20-2" data-name="Group 20-2"><line id="Line_1-2" data-name="Line 1-2" class="cls-7" x1="14.14" y1="271.02" x2="29.63" y2="271.02"/><line id="Line_2-2" data-name="Line 2-2" class="cls-7" x1="14.14" y1="266.26" x2="29.63" y2="266.26"/><line id="Line_3-2" data-name="Line 3-2" class="cls-7" x1="14.14" y1="261.49" x2="29.63" y2="261.49"/><line id="Line_4-2" data-name="Line 4-2" class="cls-7" x1="14.14" y1="256.73" x2="29.63" y2="256.73"/></g><g id="Group_21-2" data-name="Group 21-2"><rect id="Rectangle_4-10" data-name="Rectangle 4-10" class="cls-8" x="63.58" y="270.43" width="3.57" height="3.57"/><rect id="Rectangle_4-11" data-name="Rectangle 4-11" class="cls-8" x="69.53" y="270.43" width="3.57" height="3.57"/><rect id="Rectangle_4-12" data-name="Rectangle 4-12" class="cls-8" x="75.49" y="270.43" width="3.57" height="3.57"/><rect id="Rectangle_4-13" data-name="Rectangle 4-13" class="cls-8" x="69.53" y="264.47" width="3.57" height="3.57"/><rect id="Rectangle_4-14" data-name="Rectangle 4-14" class="cls-8" x="75.49" y="264.47" width="3.57" height="3.57"/><rect id="Rectangle_4-15" data-name="Rectangle 4-15" class="cls-8" x="63.58" y="258.51" width="3.57" height="3.57"/><rect id="Rectangle_4-16" data-name="Rectangle 4-16" class="cls-8" x="69.53" y="258.51" width="3.57" height="3.57"/><rect id="Rectangle_4-17" data-name="Rectangle 4-17" class="cls-8" x="75.49" y="258.51" width="3.57" height="3.57"/><rect id="Rectangle_4-18" data-name="Rectangle 4-18" class="cls-8" x="69.53" y="252.56" width="3.57" height="3.57"/></g><g id="Group_22-2" data-name="Group 22-2"><rect id="Rectangle_5-15" data-name="Rectangle 5-15" class="cls-8" x="96.93" y="263.28" width="4.76" height="4.76"/><rect id="Rectangle_5-16" data-name="Rectangle 5-16" class="cls-8" x="104.08" y="263.28" width="4.76" height="4.76"/><rect id="Rectangle_5-17" data-name="Rectangle 5-17" class="cls-8" x="96.93" y="256.13" width="4.76" height="4.76"/><rect id="Rectangle_5-18" data-name="Rectangle 5-18" class="cls-8" x="104.08" y="256.13" width="4.76" height="4.76"/><rect id="Rectangle_5-19" data-name="Rectangle 5-19" class="cls-8" x="96.93" y="248.98" width="4.76" height="4.76"/><rect id="Rectangle_5-20" data-name="Rectangle 5-20" class="cls-8" x="104.08" y="248.98" width="4.76" height="4.76"/><rect id="Rectangle_5-21" data-name="Rectangle 5-21" class="cls-8" x="111.23" y="248.98" width="4.76" height="4.76"/><rect id="Rectangle_5-22" data-name="Rectangle 5-22" class="cls-8" x="89.79" y="241.84" width="4.76" height="4.76"/><rect id="Rectangle_5-23" data-name="Rectangle 5-23" class="cls-8" x="96.93" y="241.84" width="4.76" height="4.76"/><rect id="Rectangle_5-24" data-name="Rectangle 5-24" class="cls-8" x="104.08" y="241.84" width="4.76" height="4.76"/><rect id="Rectangle_5-25" data-name="Rectangle 5-25" class="cls-8" x="111.23" y="241.84" width="4.76" height="4.76"/><rect id="Rectangle_5-26" data-name="Rectangle 5-26" class="cls-8" x="89.79" y="234.69" width="4.76" height="4.76"/><rect id="Rectangle_5-27" data-name="Rectangle 5-27" class="cls-8" x="96.93" y="234.69" width="4.76" height="4.76"/><rect id="Rectangle_5-28" data-name="Rectangle 5-28" class="cls-8" x="104.08" y="234.69" width="4.76" height="4.76"/></g><line id="Line_5-2" data-name="Line 5-2" class="cls-7" x1="126.12" y1="268.64" x2="133.27" y2="268.64"/><line id="Line_6-2" data-name="Line 6-2" class="cls-7" x1="126.12" y1="266.26" x2="133.27" y2="266.26"/><line id="Line_7-2" data-name="Line 7-2" class="cls-7" x1="135.39" y1="268.64" x2="136.38" y2="268.64"/><line id="Line_8-2" data-name="Line 8-2" class="cls-7" x1="135.39" y1="266.26" x2="136.38" y2="266.26"/><line id="Line_9-2" data-name="Line 9-2" class="cls-7" x1="126.38" y1="260.69" x2="133.38" y2="260.69"/><line id="Line_10-2" data-name="Line 10-2" class="cls-7" x1="126.38" y1="258.69" x2="133.38" y2="258.69"/><line id="Line_11-2" data-name="Line 11-2" class="cls-7" x1="135.38" y1="260.69" x2="136.38" y2="260.69"/><line id="Line_12-2" data-name="Line 12-2" class="cls-7" x1="135.38" y1="258.69" x2="136.38" y2="258.69"/><line id="Line_13-2" data-name="Line 13-2" class="cls-7" x1="126.38" y1="252.69" x2="133.38" y2="252.69"/><line id="Line_14-2" data-name="Line 14-2" class="cls-7" x1="126.38" y1="250.69" x2="133.38" y2="250.69"/><line id="Line_15-2" data-name="Line 15-2" class="cls-7" x1="135.38" y1="252.69" x2="136.38" y2="252.69"/><line id="Line_16-2" data-name="Line 16-2" class="cls-7" x1="135.38" y1="250.69" x2="136.38" y2="250.69"/><g id="Group_23-2" data-name="Group 23-2"><g id="Group_6-2" data-name="Group 6-2"><rect id="Rectangle_6-49" data-name="Rectangle 6-49" class="cls-8" x="158.88" y="270.43" width="2.38" height="2.38"/><rect id="Rectangle_6-50" data-name="Rectangle 6-50" class="cls-8" x="162.45" y="270.43" width="2.38" height="2.38"/><rect id="Rectangle_6-51" data-name="Rectangle 6-51" class="cls-8" x="158.88" y="266.85" width="2.38" height="2.38"/><rect id="Rectangle_6-52" data-name="Rectangle 6-52" class="cls-8" x="162.45" y="266.85" width="2.38" height="2.38"/></g><g id="Group_7-2" data-name="Group 7-2"><rect id="Rectangle_6-53" data-name="Rectangle 6-53" class="cls-8" x="169.6" y="270.43" width="2.38" height="2.38"/><rect id="Rectangle_6-54" data-name="Rectangle 6-54" class="cls-8" x="173.17" y="270.43" width="2.38" height="2.38"/><rect id="Rectangle_6-55" data-name="Rectangle 6-55" class="cls-8" x="169.6" y="266.85" width="2.38" height="2.38"/><rect id="Rectangle_6-56" data-name="Rectangle 6-56" class="cls-8" x="173.17" y="266.85" width="2.38" height="2.38"/></g><g id="Group_8-2" data-name="Group 8-2"><rect id="Rectangle_6-57" data-name="Rectangle 6-57" class="cls-8" x="180.32" y="270.43" width="2.38" height="2.38"/><rect id="Rectangle_6-58" data-name="Rectangle 6-58" class="cls-8" x="183.89" y="270.43" width="2.38" height="2.38"/><rect id="Rectangle_6-59" data-name="Rectangle 6-59" class="cls-8" x="180.32" y="266.85" width="2.38" height="2.38"/><rect id="Rectangle_6-60" data-name="Rectangle 6-60" class="cls-8" x="183.89" y="266.85" width="2.38" height="2.38"/></g><g id="Group_9-2" data-name="Group 9-2"><rect id="Rectangle_6-61" data-name="Rectangle 6-61" class="cls-8" x="158.88" y="262.09" width="2.38" height="2.38"/><rect id="Rectangle_6-62" data-name="Rectangle 6-62" class="cls-8" x="162.45" y="262.09" width="2.38" height="2.38"/><rect id="Rectangle_6-63" data-name="Rectangle 6-63" class="cls-8" x="158.88" y="258.51" width="2.38" height="2.38"/><rect id="Rectangle_6-64" data-name="Rectangle 6-64" class="cls-8" x="162.45" y="258.51" width="2.38" height="2.38"/></g><g id="Group_10-2" data-name="Group 10-2"><rect id="Rectangle_6-65" data-name="Rectangle 6-65" class="cls-8" x="169.6" y="262.09" width="2.38" height="2.38"/><rect id="Rectangle_6-66" data-name="Rectangle 6-66" class="cls-8" x="173.17" y="262.09" width="2.38" height="2.38"/><rect id="Rectangle_6-67" data-name="Rectangle 6-67" class="cls-8" x="169.6" y="258.51" width="2.38" height="2.38"/><rect id="Rectangle_6-68" data-name="Rectangle 6-68" class="cls-8" x="173.17" y="258.51" width="2.38" height="2.38"/></g><g id="Group_11-2" data-name="Group 11-2"><rect id="Rectangle_6-69" data-name="Rectangle 6-69" class="cls-8" x="180.32" y="262.09" width="2.38" height="2.38"/><rect id="Rectangle_6-70" data-name="Rectangle 6-70" class="cls-8" x="183.89" y="262.09" width="2.38" height="2.38"/><rect id="Rectangle_6-71" data-name="Rectangle 6-71" class="cls-8" x="180.32" y="258.51" width="2.38" height="2.38"/><rect id="Rectangle_6-72" data-name="Rectangle 6-72" class="cls-8" x="183.89" y="258.51" width="2.38" height="2.38"/></g><g id="Group_12-2" data-name="Group 12-2"><rect id="Rectangle_6-73" data-name="Rectangle 6-73" class="cls-8" x="158.88" y="253.75" width="2.38" height="2.38"/><rect id="Rectangle_6-74" data-name="Rectangle 6-74" class="cls-8" x="162.45" y="253.75" width="2.38" height="2.38"/><rect id="Rectangle_6-75" data-name="Rectangle 6-75" class="cls-8" x="158.88" y="250.18" width="2.38" height="2.38"/><rect id="Rectangle_6-76" data-name="Rectangle 6-76" class="cls-8" x="162.45" y="250.18" width="2.38" height="2.38"/></g><g id="Group_13-2" data-name="Group 13-2"><rect id="Rectangle_6-77" data-name="Rectangle 6-77" class="cls-8" x="169.6" y="253.75" width="2.38" height="2.38"/><rect id="Rectangle_6-78" data-name="Rectangle 6-78" class="cls-8" x="173.17" y="253.75" width="2.38" height="2.38"/><rect id="Rectangle_6-79" data-name="Rectangle 6-79" class="cls-8" x="169.6" y="250.18" width="2.38" height="2.38"/><rect id="Rectangle_6-80" data-name="Rectangle 6-80" class="cls-8" x="173.17" y="250.18" width="2.38" height="2.38"/></g><g id="Group_14-2" data-name="Group 14-2"><rect id="Rectangle_6-81" data-name="Rectangle 6-81" class="cls-8" x="180.32" y="253.75" width="2.38" height="2.38"/><rect id="Rectangle_6-82" data-name="Rectangle 6-82" class="cls-8" x="183.89" y="253.75" width="2.38" height="2.38"/><rect id="Rectangle_6-83" data-name="Rectangle 6-83" class="cls-8" x="180.32" y="250.18" width="2.38" height="2.38"/><rect id="Rectangle_6-84" data-name="Rectangle 6-84" class="cls-8" x="183.89" y="250.18" width="2.38" height="2.38"/></g><g id="Group_15-2" data-name="Group 15-2"><rect id="Rectangle_6-85" data-name="Rectangle 6-85" class="cls-8" x="158.88" y="245.41" width="2.38" height="2.38"/><rect id="Rectangle_6-86" data-name="Rectangle 6-86" class="cls-8" x="162.45" y="245.41" width="2.38" height="2.38"/><rect id="Rectangle_6-87" data-name="Rectangle 6-87" class="cls-8" x="158.88" y="241.84" width="2.38" height="2.38"/><rect id="Rectangle_6-88" data-name="Rectangle 6-88" class="cls-8" x="162.45" y="241.84" width="2.38" height="2.38"/></g><g id="Group_16-2" data-name="Group 16-2"><rect id="Rectangle_6-89" data-name="Rectangle 6-89" class="cls-8" x="169.6" y="245.41" width="2.38" height="2.38"/><rect id="Rectangle_6-90" data-name="Rectangle 6-90" class="cls-8" x="173.17" y="245.41" width="2.38" height="2.38"/><rect id="Rectangle_6-91" data-name="Rectangle 6-91" class="cls-8" x="169.6" y="241.84" width="2.38" height="2.38"/><rect id="Rectangle_6-92" data-name="Rectangle 6-92" class="cls-8" x="173.17" y="241.84" width="2.38" height="2.38"/></g><g id="Group_17-2" data-name="Group 17-2"><rect id="Rectangle_6-93" data-name="Rectangle 6-93" class="cls-8" x="180.32" y="245.41" width="2.38" height="2.38"/><rect id="Rectangle_6-94" data-name="Rectangle 6-94" class="cls-8" x="183.89" y="245.41" width="2.38" height="2.38"/><rect id="Rectangle_6-95" data-name="Rectangle 6-95" class="cls-8" x="180.32" y="241.84" width="2.38" height="2.38"/><rect id="Rectangle_6-96" data-name="Rectangle 6-96" class="cls-8" x="183.89" y="241.84" width="2.38" height="2.38"/></g></g><line id="Line_17-2" data-name="Line 17-2" class="cls-9" x1="195.21" y1="279.36" x2="199.98" y2="279.36"/><line id="Line_18-2" data-name="Line 18-2" class="cls-9" x1="195.21" y1="274.6" x2="199.98" y2="274.6"/><line id="Line_19-2" data-name="Line 19-2" class="cls-9" x1="195.21" y1="269.83" x2="199.98" y2="269.83"/><g class="cls-14"><g id="Repeat_Grid_1-2" data-name="Repeat Grid 1-2"><line id="Line_21-12" data-name="Line 21-12" class="cls-7" x1="248.38" y1="266.19" x2="243.38" y2="266.19"/><line id="Line_21-13" data-name="Line 21-13" class="cls-7" x1="248.38" y1="263.19" x2="243.38" y2="263.19"/><line id="Line_21-14" data-name="Line 21-14" class="cls-7" x1="248.38" y1="260.19" x2="243.38" y2="260.19"/><line id="Line_21-15" data-name="Line 21-15" class="cls-7" x1="248.38" y1="257.19" x2="243.38" y2="257.19"/><line id="Line_21-16" data-name="Line 21-16" class="cls-7" x1="248.38" y1="254.19" x2="243.38" y2="254.19"/><line id="Line_21-17" data-name="Line 21-17" class="cls-7" x1="248.38" y1="251.19" x2="243.38" y2="251.19"/><line id="Line_21-18" data-name="Line 21-18" class="cls-7" x1="248.38" y1="248.19" x2="243.38" y2="248.19"/><line id="Line_21-19" data-name="Line 21-19" class="cls-7" x1="248.38" y1="245.19" x2="243.38" y2="245.19"/><line id="Line_21-20" data-name="Line 21-20" class="cls-7" x1="248.38" y1="242.19" x2="243.38" y2="242.19"/><line id="Line_21-21" data-name="Line 21-21" class="cls-7" x1="248.38" y1="239.19" x2="243.38" y2="239.19"/><line id="Line_21-22" data-name="Line 21-22" class="cls-7" x1="248.38" y1="236.19" x2="243.38" y2="236.19"/></g></g><g id="Group_24-2" data-name="Group 24-2"><rect id="Rectangle_7-5" data-name="Rectangle 7-5" class="cls-8" x="270.85" y="274" width="1.19" height="1.19"/><rect id="Rectangle_7-6" data-name="Rectangle 7-6" class="cls-8" x="273.24" y="274" width="1.19" height="1.19"/><rect id="Rectangle_7-7" data-name="Rectangle 7-7" class="cls-8" x="270.85" y="271.62" width="1.19" height="1.19"/><rect id="Rectangle_7-8" data-name="Rectangle 7-8" class="cls-8" x="273.24" y="271.62" width="1.19" height="1.19"/><rect id="Rectangle_8-2" data-name="Rectangle 8-2" class="cls-8" x="276.81" y="268.04" width="1.19" height="1.19"/><rect id="Rectangle_9-2" data-name="Rectangle 9-2" class="cls-8" x="279.19" y="268.04" width="1.19" height="1.19"/><rect id="Rectangle_10-2" data-name="Rectangle 10-2" class="cls-8" x="276.81" y="265.66" width="1.19" height="1.19"/><rect id="Rectangle_11-2" data-name="Rectangle 11-2" class="cls-8" x="279.19" y="265.66" width="1.19" height="1.19"/><rect id="Rectangle_12-2" data-name="Rectangle 12-2" class="cls-8" x="282.77" y="262.09" width="1.19" height="1.19"/><rect id="Rectangle_13-2" data-name="Rectangle 13-2" class="cls-8" x="285.15" y="262.09" width="1.19" height="1.19"/><rect id="Rectangle_14-2" data-name="Rectangle 14-2" class="cls-8" x="282.77" y="259.71" width="1.19" height="1.19"/><rect id="Rectangle_15-2" data-name="Rectangle 15-2" class="cls-8" x="285.15" y="259.71" width="1.19" height="1.19"/></g><rect id="Rectangle_16-16" data-name="Rectangle 16-16" class="cls-8" x="303.02" y="274" width="2.38" height="4.76"/><rect id="Rectangle_16-17" data-name="Rectangle 16-17" class="cls-8" x="310.17" y="274" width="2.38" height="4.76"/><rect id="Rectangle_16-18" data-name="Rectangle 16-18" class="cls-8" x="299.44" y="268.04" width="2.38" height="4.76"/><rect id="Rectangle_16-19" data-name="Rectangle 16-19" class="cls-8" x="303.02" y="268.04" width="2.38" height="4.76"/><rect id="Rectangle_16-20" data-name="Rectangle 16-20" class="cls-8" x="310.17" y="268.04" width="2.38" height="4.76"/><rect id="Rectangle_16-21" data-name="Rectangle 16-21" class="cls-8" x="303.02" y="262.09" width="2.38" height="4.76"/><rect id="Rectangle_16-22" data-name="Rectangle 16-22" class="cls-8" x="306.59" y="262.09" width="2.38" height="4.76"/><rect id="Rectangle_16-23" data-name="Rectangle 16-23" class="cls-8" x="310.17" y="262.09" width="2.38" height="4.76"/><rect id="Rectangle_16-24" data-name="Rectangle 16-24" class="cls-8" x="299.44" y="256.13" width="2.38" height="4.76"/><rect id="Rectangle_16-25" data-name="Rectangle 16-25" class="cls-8" x="303.02" y="256.13" width="2.38" height="4.76"/><rect id="Rectangle_16-26" data-name="Rectangle 16-26" class="cls-8" x="306.59" y="256.13" width="2.38" height="4.76"/><rect id="Rectangle_16-27" data-name="Rectangle 16-27" class="cls-8" x="310.17" y="256.13" width="2.38" height="4.76"/><rect id="Rectangle_16-28" data-name="Rectangle 16-28" class="cls-8" x="299.44" y="250.18" width="2.38" height="4.76"/><rect id="Rectangle_16-29" data-name="Rectangle 16-29" class="cls-8" x="303.02" y="250.18" width="2.38" height="4.76"/><rect id="Rectangle_16-30" data-name="Rectangle 16-30" class="cls-8" x="306.59" y="250.18" width="2.38" height="4.76"/><line id="Line_22-2" data-name="Line 22-2" class="cls-7" x1="334.59" y1="287.7" x2="334.59" y2="269.83"/><line id="Line_23-2" data-name="Line 23-2" class="cls-7" x1="332.2" y1="287.7" x2="332.2" y2="269.83"/><line id="Line_24-2" data-name="Line 24-2" class="cls-7" x1="327.44" y1="287.7" x2="327.44" y2="269.83"/><line id="Line_25-2" data-name="Line 25-2" class="cls-7" x1="325.06" y1="287.7" x2="325.06" y2="269.83"/><line id="Line_26-2" data-name="Line 26-2" class="cls-7" x1="345.31" y1="286.51" x2="351.26" y2="286.51"/><line id="Line_27-2" data-name="Line 27-2" class="cls-7" x1="345.38" y1="283.42" x2="353.38" y2="283.42"/><line id="Line_28-2" data-name="Line 28-2" class="cls-7" x1="345.31" y1="280.55" x2="354.84" y2="280.55"/><line id="Line_29-2" data-name="Line 29-2" class="cls-7" x1="345.38" y1="277.69" x2="357.38" y2="277.69"/><rect id="Rectangle_17-2" data-name="Rectangle 17-2" class="cls-8" x="351.86" y="270.43" width="3.57" height="3.57"/><rect id="Rectangle_18-2" data-name="Rectangle 18-2" class="cls-8" x="357.82" y="270.43" width="3.57" height="3.57"/></g><g id="Group_27" data-name="Group 27"><path id="Path_9" data-name="Path 9" class="cls-15" d="M66.25,45.08S73,42.41,77.81,47.31c3.42-5.23,10.66-2.55,10.66-2.55S79.17,43,78.1,50.1C76.29,43,66.25,45.08,66.25,45.08Z"/><path id="Path_10" data-name="Path 10" class="cls-15" d="M78.89,35.94s4.87-1.93,8.35,1.6c2.47-3.77,7.7-1.84,7.7-1.84s-6.72-1.3-7.49,3.87C86.14,34.46,78.89,35.94,78.89,35.94Z"/><path id="Path_11" data-name="Path 11" class="cls-15" d="M59.93,32.69s3.58-1.42,6.14,1.18c1.81-2.77,5.65-1.35,5.65-1.35s-4.93-1-5.5,2.84C65.26,31.6,59.93,32.69,59.93,32.69Z"/><path id="Path_15" data-name="Path 15" class="cls-16" d="M257.1,17.38s6.75-2.67,11.56,2.23c3.42-5.23,10.66-2.56,10.66-2.56S270,15.24,269,22.4C267.14,15.33,257.1,17.38,257.1,17.38Z"/><path id="Path_16" data-name="Path 16" class="cls-16" d="M269.74,8.24s4.87-1.93,8.35,1.6c2.47-3.77,7.7-1.84,7.7-1.84s-6.72-1.3-7.49,3.87C277,6.76,269.74,8.24,269.74,8.24Z"/><path id="Path_17" data-name="Path 17" class="cls-16" d="M250.78,5s3.58-1.42,6.14,1.18c1.81-2.77,5.65-1.35,5.65-1.35s-4.93-1-5.5,2.84C256.11,3.9,250.78,5,250.78,5Z"/></g><g id="Group_28" data-name="Group 28" class="cls-17"><path id="Path_18" data-name="Path 18" class="cls-18" d="M47,5.55s6.63-2.49,10.56-2.28C62.15.16,69.19,1.2,69.19,1.2s10.56-2.7,15.53,0c6.84-.83,12-.83,15.53,2.07,4.35-1.87,11.4,2.28,11.4,2.28Z"/><path id="Path_20" data-name="Path 20" class="cls-18" d="M313,22.55s4.69-1.76,7.48-1.62c3.22-2.2,8.21-1.46,8.21-1.46s7.48-1.91,11,0c4.84-.59,8.51-.59,11,1.46,3.08-1.32,8.07,1.62,8.07,1.62Z"/><path id="Path_21" data-name="Path 21" class="cls-18" d="M163,35.55a15.38,15.38,0,0,1,4.59-1c2-1.35,5-.9,5-.9s4.59-1.17,6.75,0c3-.36,5.21-.36,6.74.9,1.89-.81,5,1,5,1Z"/></g></g></g></g></svg>